<?xml version="1.0" encoding="UTF-8" standalone="no"?>
<svg
   version="1.0"
   width="300.000000pt"
   height="300.000000pt"
   viewBox="0 0 300.000000 300.000000"
   preserveAspectRatio="xMidYMid meet"
   id="svg76"
   sodipodi:docname="logo.svg"
   inkscape:version="1.4 (86a8ad7, 2024-10-11)"
   xmlns:inkscape="http://www.inkscape.org/namespaces/inkscape"
   xmlns:sodipodi="http://sodipodi.sourceforge.net/DTD/sodipodi-0.dtd"
   xmlns="http://www.w3.org/2000/svg"
   xmlns:svg="http://www.w3.org/2000/svg">
  <defs
     id="defs76" />
  <sodipodi:namedview
     id="namedview76"
     pagecolor="#505050"
     bordercolor="#eeeeee"
     borderopacity="1"
     inkscape:showpageshadow="0"
     inkscape:pageopacity="0"
     inkscape:pagecheckerboard="0"
     inkscape:deskcolor="#505050"
     inkscape:document-units="pt"
     inkscape:zoom="2.062984"
     inkscape:cx="210.61724"
     inkscape:cy="184.44156"
     inkscape:window-width="2560"
     inkscape:window-height="1369"
     inkscape:window-x="-8"
     inkscape:window-y="-8"
     inkscape:window-maximized="1"
     inkscape:current-layer="svg76" />
  <metadata
     id="metadata1">
Created by potrace 1.10, written by Peter Selinger 2001-2011
</metadata>
  <g
     transform="translate(0.000000,300.000000) scale(0.100000,-0.100000)"
     fill="#000000"
     stroke="none"
     id="g76"
     style="fill:#7f7f7f;fill-opacity:1">
    <path
       d="M1662 2983 c2 -10 18 -25 36 -35 44 -22 44 -21 33 -51 l-10 -26 -56 19 c-79 27 -208 43 -290 35 -312 -30 -551 -194 -680 -468 -104 -220 -104 -482 0 -687 59 -116 194 -267 310 -346 58 -39 150 -81 225 -101 88 -24 317 -23 410 1 221 57 415 233 531 480 157 335 21 770 -310 992 -36 24 -71 44 -78 44 -16 0 -16 18 0 47 l12 23 60 -42 c301 -207 441 -451 439 -763 -1 -177 -38 -303 -132 -450 -90 -141 -220 -263 -349 -328 -81 -42 -217 -77 -317 -83 -140 -8 -156 -12 -156 -36 0 -20 3 -21 128 -15 143 6 231 27 347 82 147 70 326 230 404 359 106 176 155 426 121 616 -55 317 -242 560 -547 714 -80 40 -137 48 -131 19z m-191 -134 c4 -13 10 -37 14 -53 6 -27 7 -28 23 -13 15 15 15 19 -1 52 -9 20 -17 38 -17 41 0 19 195 -33 275 -73 96 -49 220 -160 287 -256 47 -69 118 -220 118 -252 0 -32 -26 -53 -34 -27 -10 29 -55 65 -137 110 -70 38 -78 40 -98 26 -30 -21 -26 -57 9 -98 19 -22 27 -37 20 -41 -15 -9 -37 12 -57 54 -10 20 -23 42 -29 48 -7 7 -15 30 -19 52 -4 22 -13 45 -21 52 -18 15 -18 28 3 51 14 16 14 22 3 43 -14 27 -70 48 -98 37 -9 -3 -26 -16 -38 -29 -12 -13 -33 -23 -47 -23 -25 0 -96 38 -97 52 0 4 17 10 38 14 20 4 45 11 55 16 22 12 47 66 39 87 -4 11 0 13 19 6 45 -14 94 -17 122 -6 44 17 31 26 -33 23 -53 -3 -64 -1 -92 23 -40 33 -87 29 -130 -11 -35 -34 -36 -57 -3 -72 35 -16 35 -16 47 18 5 17 19 35 30 41 18 10 19 8 12 -28 -9 -50 -20 -63 -58 -63 -42 0 -108 -39 -124 -73 -9 -18 -21 -27 -36 -27 -27 0 -42 -36 -24 -57 16 -19 39 -16 67 11 15 13 38 31 52 40 25 16 28 15 64 -10 26 -18 40 -22 45 -14 5 8 14 3 28 -14 24 -31 32 -33 32 -6 0 12 7 35 16 52 14 26 19 29 46 24 65 -13 77 -46 17 -46 -38 0 -40 -2 -37 -27 2 -21 10 -29 34 -35 28 -7 32 -13 36 -50 7 -53 87 -191 113 -197 11 -2 34 5 52 14 48 26 57 75 13 75 -18 0 -70 53 -70 71 0 14 22 11 41 -7 10 -9 47 -31 81 -48 62 -31 63 -32 93 -108 36 -94 55 -101 55 -22 0 30 4 53 9 50 12 -8 23 -149 15 -191 l-6 -35 -69 0 -69 0 0 59 c0 52 3 60 23 66 l22 8 -22 4 c-18 3 -23 12 -25 45 -4 59 -28 63 -28 5 0 -37 -4 -46 -22 -52 l-23 -8 23 -4 c20 -4 22 -10 22 -64 l0 -60 -52 1 c-80 3 -88 1 -88 -15 0 -12 14 -15 65 -15 l66 0 -7 -37 c-10 -58 -44 -156 -60 -174 -11 -13 -25 -14 -72 -8 -33 5 -61 4 -66 -1 -15 -15 -1 -21 64 -27 60 -6 61 -7 55 -31 -3 -14 -28 -59 -56 -102 -27 -42 -49 -83 -49 -90 0 -9 -11 -11 -42 -6 -23 4 -44 9 -47 12 -3 2 3 18 13 34 23 39 58 142 50 149 -8 8 -23 -19 -60 -103 -21 -48 -36 -71 -47 -70 -10 0 -47 1 -85 2 l-67 2 0 243 0 242 -147 3 -148 3 0 54 c0 48 2 55 20 55 27 0 26 16 -1 23 -20 6 -21 10 -14 89 13 153 15 160 55 165 53 5 62 23 12 23 -23 0 -42 3 -42 8 0 14 50 193 59 210 4 9 11 29 15 45 5 21 3 27 -10 27 -9 0 -18 -9 -21 -20 -4 -16 -14 -20 -44 -20 -28 0 -39 -4 -39 -15 0 -10 10 -15 34 -15 l34 0 -28 -87 c-15 -49 -30 -97 -32 -108 -3 -18 -12 -19 -117 -20 l-113 0 6 43 c9 64 -20 54 -33 -12 -6 -27 -11 -31 -41 -32 -45 -1 -80 -13 -80 -25 0 -7 21 -8 57 -3 l56 7 -7 -34 c-3 -19 -9 -73 -13 -121 -5 -74 -4 -88 9 -88 12 0 16 20 21 98 10 153 -1 142 134 142 l116 0 -7 -37 c-3 -21 -9 -80 -13 -130 l-6 -93 -95 0 c-85 0 -93 -2 -81 -16 10 -12 29 -15 93 -13 l81 4 6 -110 c3 -61 10 -138 14 -172 l8 -63 -42 0 c-48 0 -121 -32 -85 -38 11 -1 46 1 77 6 l56 9 10 -46 c5 -25 19 -74 29 -109 l20 -62 -22 -5 c-11 -3 -43 -6 -70 -7 l-49 -3 -44 65 c-46 68 -57 78 -67 61 -7 -11 32 -81 65 -116 19 -21 18 -21 -35 -39 -30 -10 -65 -16 -78 -13 -26 7 -198 177 -198 196 0 7 5 9 10 6 16 -10 50 5 50 22 0 13 -8 14 -39 9 -34 -5 -42 -3 -59 19 -25 32 -78 158 -87 208 -7 35 -6 37 19 37 35 0 34 28 -1 32 -28 3 -28 3 -31 92 -3 99 8 125 32 78 9 -17 26 -38 38 -47 20 -14 23 -24 23 -93 1 -83 12 -115 64 -174 15 -18 33 -54 39 -79 31 -124 118 -259 168 -259 l24 0 -30 42 c-36 50 -37 54 -5 109 14 24 25 51 25 59 0 8 20 33 45 56 40 36 45 46 45 83 0 23 5 51 11 63 20 38 3 66 -52 85 -32 11 -60 30 -75 49 -27 35 -124 99 -166 109 -20 5 -38 1 -63 -15 l-35 -21 -9 23 c-5 13 -15 38 -21 56 -7 17 -19 32 -27 32 -13 0 -14 8 -9 41 4 23 11 50 17 60 13 26 56 25 64 -2 9 -26 29 -19 33 12 4 28 93 124 137 146 17 8 41 26 55 38 14 13 39 25 55 27 36 4 45 36 21 73 -29 44 -61 43 -112 -5 -36 -33 -48 -39 -59 -30 -23 19 3 57 62 91 50 29 55 30 72 15 24 -22 48 -20 61 4 12 23 6 40 -16 40 -31 0 -11 20 39 39 124 46 181 57 286 56 60 -1 65 -3 72 -26z m-435 -201 c4 -7 2 -14 -6 -16 -7 -3 -29 -19 -49 -36 -20 -18 -52 -42 -71 -54 -19 -11 -57 -44 -85 -71 -31 -32 -58 -51 -72 -51 -13 0 -23 2 -23 5 0 12 44 92 71 130 60 84 56 81 87 63 30 -18 56 -12 87 20 23 23 50 28 61 10z m-135 -514 c37 -20 79 -51 93 -68 14 -19 44 -40 71 -51 50 -18 50 -21 31 -93 -2 -9 -5 -27 -5 -39 -1 -11 -17 -37 -36 -56 -19 -19 -46 -62 -61 -96 -15 -33 -30 -61 -35 -61 -12 0 -47 71 -68 140 -11 33 -33 77 -51 97 -51 57 -63 96 -55 172 7 65 18 91 37 91 6 0 41 -16 79 -36z m606 -233 l-2 -98 -115 -5 c-63 -3 -116 -4 -118 -3 -3 2 -18 91 -27 158 l-6 47 135 0 135 0 -2 -99z m673 76 c0 -17 -44 -147 -59 -176 -10 -18 -18 -20 -56 -14 -24 3 -52 2 -62 -2 -17 -7 -17 -8 2 -15 11 -5 35 -9 53 -9 33 -1 38 -7 23 -30 -8 -12 -18 -13 -64 -2 l-56 12 25 52 c13 29 31 85 40 125 l16 72 69 0 c51 0 69 -4 69 -13z m-672 -292 c2 -44 1 -93 -2 -110 l-6 -30 -82 1 -83 1 -27 84 c-15 46 -27 95 -28 109 l0 25 113 0 112 0 3 -80z m535 5 c20 -18 -143 -190 -180 -190 -12 0 -23 2 -23 4 0 3 25 44 55 92 30 49 55 94 55 101 0 10 11 12 43 7 23 -4 46 -10 50 -14z m-555 -185 c9 -8 -42 -148 -55 -152 -7 -3 -24 21 -39 54 -38 84 -44 100 -36 108 7 7 122 -1 130 -10z m187 -7 c20 -19 -144 -148 -188 -148 -12 0 -10 12 9 58 13 31 24 66 24 78 0 11 2 23 5 26 9 9 139 -3 150 -14z m-332 -56 c15 -38 27 -74 27 -80 0 -14 -89 46 -142 96 -20 20 -35 39 -32 44 3 4 31 8 62 8 l57 0 28 -68z m-148 5 c27 -29 61 -61 75 -70 l25 -18 -45 6 c-47 6 -200 76 -221 101 -9 12 -5 14 27 15 22 0 48 4 59 9 11 5 22 9 25 9 2 1 27 -23 55 -52z m618 27 c15 -5 16 -8 6 -21 -25 -29 -202 -103 -216 -90 -3 3 24 33 59 66 66 64 76 67 151 45z"
       id="path1"
       style="fill:#7f7f7f;fill-opacity:1" />
    <path
       d="M1312 2849 c-88 -8 -132 -25 -132 -49 0 -10 -7 -23 -15 -30 -18 -15 -20 -77 -2 -83 6 -2 25 7 40 22 15 14 60 42 99 61 66 32 111 72 91 82 -4 2 -41 1 -81 -3z m18 -29 c0 -8 -130 -74 -135 -68 -3 2 1 18 7 36 9 24 19 32 43 34 46 5 85 4 85 -2z"
       id="path2"
       style="fill:#7f7f7f;fill-opacity:1" />
    <path
       d="M1431 2677 c-6 -6 -11 -21 -11 -34 0 -18 6 -23 24 -23 29 0 40 13 31 39 -7 24 -29 33 -44 18z"
       id="path3"
       style="fill:#7f7f7f;fill-opacity:1" />
    <path
       d="M1467 2462 c-59 -19 -137 -99 -155 -161 -26 -83 20 -194 83 -202 11 -1 42 1 68 6 60 9 78 -5 108 -84 16 -42 19 -68 15 -108 -10 -91 36 -243 73 -243 3 0 21 9 39 20 34 21 68 68 79 110 3 14 19 40 35 59 28 32 29 37 23 92 l-7 58 56 59 c39 41 56 67 56 85 0 24 -4 27 -34 27 -26 0 -41 8 -61 31 -30 36 -79 130 -89 172 -6 26 -8 27 -76 27 -62 0 -73 3 -102 28 -45 39 -56 42 -111 24z m111 -55 c16 -15 39 -22 83 -25 l60 -5 39 -81 c40 -84 66 -119 110 -147 l24 -16 -42 -48 c-48 -54 -57 -79 -49 -134 3 -28 0 -44 -15 -62 -10 -13 -32 -52 -48 -87 -27 -57 -60 -88 -82 -75 -16 9 -32 92 -33 173 -2 67 -7 97 -27 140 -43 93 -81 115 -165 95 -26 -6 -36 -3 -57 18 -36 37 -50 96 -32 146 19 56 63 106 115 129 50 22 78 17 119 -21z"
       id="path4"
       style="fill:#7f7f7f;fill-opacity:1" />
    <path
       d="M1054 2319 c-10 -17 13 -36 27 -22 12 12 4 33 -11 33 -5 0 -12 -5 -16 -11z"
       id="path5"
       style="fill:#7f7f7f;fill-opacity:1" />
    <path
       d="M750 2290 c0 -13 34 -30 59 -30 26 0 27 16 2 30 -25 13 -61 13 -61 0z"
       id="path6"
       style="fill:#7f7f7f;fill-opacity:1" />
    <path
       d="M1909 1913 c-33 -35 -49 -65 -49 -93 0 -16 5 -21 23 -18 30 4 74 90 61 119 -9 19 -10 19 -35 -8z"
       id="path7"
       style="fill:#7f7f7f;fill-opacity:1" />
    <path
       d="M1364 1918 c-9 -30 23 -55 44 -34 19 18 6 56 -18 56 -10 0 -22 -10 -26 -22z"
       id="path8"
       style="fill:#7f7f7f;fill-opacity:1" />
    <path
       d="M1385 1697 c-10 -8 -14 -19 -9 -30 9 -25 48 -18 52 9 4 26 -20 37 -43 21z"
       id="path9"
       style="fill:#7f7f7f;fill-opacity:1" />
    <path
       d="M870 2954 c-11 -12 -10 -18 3 -31 8 -9 23 -13 31 -10 21 8 21 43 0 51 -21 8 -20 8 -34 -10z"
       id="path10"
       style="fill:#7f7f7f;fill-opacity:1" />
    <path
       d="M632 2928 c-7 -7 -12 -20 -12 -29 0 -13 -8 -17 -31 -17 -43 1 -66 -24 -51 -57 6 -14 17 -25 23 -25 14 0 98 69 109 91 19 35 -11 64 -38 37z m-22 -64 c0 -3 -5 -15 -11 -26 -9 -16 -13 -18 -20 -7 -4 8 -3 19 3 26 11 13 28 18 28 7z"
       id="path11"
       style="fill:#7f7f7f;fill-opacity:1" />
    <path
       d="M720 2889 c-27 -50 10 -95 54 -66 28 19 34 55 14 75 -19 19 -56 14 -68 -9z"
       id="path12"
       style="fill:#7f7f7f;fill-opacity:1" />
    <path
       d="M2157 2893 c-9 -16 -6 -83 3 -83 5 0 7 -6 4 -14 -10 -27 45 -106 74 -106 12 0 11 5 -6 23 -11 12 -28 39 -36 59 -9 20 -20 39 -26 43 -6 4 -7 23 -4 46 6 35 2 51 -9 32z"
       id="path13"
       style="fill:#7f7f7f;fill-opacity:1" />
    <path
       d="M596 2781 c-21 -23 -13 -61 13 -61 24 0 51 31 51 58 0 28 -40 30 -64 3z"
       id="path14"
       style="fill:#7f7f7f;fill-opacity:1" />
    <path
       d="M2428 2520 c-2 -222 -1 -269 10 -265 8 3 16 5 18 5 7 0 5 464 -2 499 -16 79 -24 10 -26 -239z"
       id="path15"
       style="fill:#7f7f7f;fill-opacity:1" />
    <path
       d="M2505 2770 c-3 -9 -4 -123 -3 -254 2 -181 6 -240 16 -244 9 -3 12 49 12 240 0 221 -8 301 -25 258z"
       id="path16"
       style="fill:#7f7f7f;fill-opacity:1" />
    <path
       d="M2564 2767 c-7 -18 2 -417 11 -487 7 -57 21 -84 36 -74 13 8 11 52 -3 56 -8 3 -10 74 -9 261 2 230 1 257 -14 257 -8 0 -18 -6 -21 -13z"
       id="path17"
       style="fill:#7f7f7f;fill-opacity:1" />
    <path
       d="M2637 2773 c-4 -3 -7 -106 -7 -228 0 -180 3 -225 14 -234 11 -10 16 -8 21 9 9 27 -5 460 -15 460 -4 0 -10 -3 -13 -7z"
       id="path18"
       style="fill:#7f7f7f;fill-opacity:1" />
    <path
       d="M482 2758 c-16 -16 -15 -43 2 -57 22 -19 58 7 54 39 -3 28 -35 39 -56 18z"
       id="path19"
       style="fill:#7f7f7f;fill-opacity:1" />
    <path
       d="M2707 2763 c-4 -3 -7 -114 -7 -245 0 -220 1 -239 17 -236 19 3 20 40 15 341 -2 134 -6 159 -25 140z"
       id="path20"
       style="fill:#7f7f7f;fill-opacity:1" />
    <path
       d="M679 2736 c-9 -20 -9 -29 1 -41 17 -20 33 -19 56 6 14 15 16 24 8 37 -18 28 -52 27 -65 -2z"
       id="path21"
       style="fill:#7f7f7f;fill-opacity:1" />
    <path
       d="M2775 2708 c-3 -18 -5 -150 -3 -292 2 -197 6 -260 16 -264 9 -3 12 59 12 287 0 172 -4 292 -9 296 -6 3 -13 -9 -16 -27z"
       id="path22"
       style="fill:#7f7f7f;fill-opacity:1" />
    <path
       d="M330 2653 c-17 -21 -48 -72 -68 -112 -32 -65 -37 -84 -37 -145 1 -85 18 -124 76 -165 l40 -30 3 -113 c3 -91 8 -127 30 -187 29 -82 74 -167 117 -222 38 -48 37 -57 -2 -24 -54 45 -107 66 -181 72 l-71 6 7 -34 c11 -58 62 -155 105 -202 23 -25 74 -62 114 -83 70 -38 75 -39 177 -39 l105 -1 84 -52 c47 -28 100 -55 118 -58 23 -4 33 -12 33 -24 0 -20 33 -36 50 -25 22 13 8 35 -34 54 -179 79 -315 199 -470 414 -106 148 -143 247 -153 414 l-6 101 42 21 c85 44 121 156 87 273 -14 50 -109 198 -127 198 -4 0 -22 -17 -39 -37z m116 -141 c43 -94 29 -193 -32 -241 -46 -36 -51 -29 -42 51 11 94 7 190 -9 196 -10 3 -13 -13 -13 -56 0 -82 -12 -212 -19 -212 -3 0 -21 21 -38 48 -27 38 -33 57 -33 97 1 58 33 144 75 200 l29 37 29 -33 c16 -19 40 -58 53 -87z m11 -866 c69 -34 100 -55 129 -91 22 -26 56 -68 77 -92 20 -24 37 -48 37 -53 0 -5 -33 -8 -72 -6 -53 2 -89 10 -131 29 -75 34 -159 118 -192 192 -14 32 -25 59 -25 61 0 2 19 4 43 4 31 0 70 -13 134 -44z"
       id="path23"
       style="fill:#7f7f7f;fill-opacity:1" />
    <path
       d="M290 2377 c0 -16 8 -30 21 -38 19 -10 20 -9 14 13 -4 12 -13 30 -21 38 -12 12 -14 11 -14 -13z"
       id="path24"
       style="fill:#7f7f7f;fill-opacity:1" />
    <path
       d="M421 2364 c-23 -29 -27 -44 -11 -44 11 0 44 59 37 66 -3 3 -14 -7 -26 -22z"
       id="path25"
       style="fill:#7f7f7f;fill-opacity:1" />
    <path
       d="M330 1641 c0 -19 174 -146 249 -182 121 -58 107 -37 -29 45 -36 22 -90 58 -120 81 -66 50 -100 69 -100 56z"
       id="path26"
       style="fill:#7f7f7f;fill-opacity:1" />
    <path
       d="M519 2671 c-22 -18 -23 -21 -8 -36 15 -16 18 -15 38 6 36 39 11 64 -30 30z"
       id="path27"
       style="fill:#7f7f7f;fill-opacity:1" />
    <path
       d="M596 2647 c-12 -9 -17 -23 -14 -42 4 -42 47 -42 66 -2 22 45 -12 73 -52 44z"
       id="path28"
       style="fill:#7f7f7f;fill-opacity:1" />
    <path
       d="M574 2516 c-8 -21 3 -36 27 -36 15 0 20 6 17 22 -4 27 -35 37 -44 14z"
       id="path29"
       style="fill:#7f7f7f;fill-opacity:1" />
    <path
       d="M2480 2204 c0 -30 71 -109 92 -102 18 6 22 42 8 68 -12 22 -67 60 -87 60 -7 0 -13 -12 -13 -26z m64 -30 c20 -19 20 -24 1 -24 -8 0 -19 9 -25 20 -13 24 2 27 24 4z"
       id="path30"
       style="fill:#7f7f7f;fill-opacity:1" />
    <path
       d="M2669 2207 c-37 -25 -64 -70 -55 -93 7 -18 15 -18 53 6 33 20 56 50 68 88 9 30 -21 30 -66 -1z"
       id="path31"
       style="fill:#7f7f7f;fill-opacity:1" />
    <path
       d="M497 2169 c-51 -42 -68 -79 -74 -165 -7 -86 0 -91 56 -43 55 48 71 84 71 161 0 37 -4 69 -8 72 -5 3 -25 -9 -45 -25z m23 -61 c0 -29 -34 -103 -50 -113 -10 -6 -12 3 -8 38 8 70 58 134 58 75z"
       id="path32"
       style="fill:#7f7f7f;fill-opacity:1" />
    <path
       d="M174 2168 c-16 -25 -6 -130 13 -157 21 -28 123 -104 131 -97 7 7 -27 154 -42 184 -26 50 -88 93 -102 70z m94 -146 c5 -26 9 -49 6 -51 -7 -7 -45 32 -60 61 -8 15 -14 44 -14 65 l1 38 28 -33 c15 -18 33 -54 39 -80z"
       id="path33"
       style="fill:#7f7f7f;fill-opacity:1" />
    <path
       d="M2450 2115 c0 -2 7 -23 16 -45 12 -29 27 -46 55 -60 54 -28 61 -26 57 18 -3 33 -8 40 -53 64 -47 26 -75 34 -75 23z m84 -51 c17 -6 23 -34 8 -34 -5 0 -17 9 -27 20 -18 20 -11 25 19 14z"
       id="path34"
       style="fill:#7f7f7f;fill-opacity:1" />
    <path
       d="M2678 2094 c-49 -25 -68 -48 -68 -83 0 -25 11 -26 56 -5 35 17 45 30 64 78 13 35 2 38 -52 10z"
       id="path35"
       style="fill:#7f7f7f;fill-opacity:1" />
    <path
       d="M2440 1992 c0 -35 46 -97 88 -120 37 -21 43 -22 48 -8 3 9 3 32 0 51 -6 28 -15 39 -47 55 -73 38 -89 42 -89 22z m91 -53 c11 -11 18 -23 15 -26 -7 -8 -56 25 -56 37 0 16 19 11 41 -11z"
       id="path36"
       style="fill:#7f7f7f;fill-opacity:1" />
    <path
       d="M2658 1975 c-40 -21 -47 -29 -53 -65 -8 -49 -5 -55 31 -46 36 9 77 55 91 100 10 31 9 36 -5 36 -10 -1 -38 -12 -64 -25z m23 -33 c-13 -25 -40 -46 -48 -39 -9 10 26 57 43 57 11 0 12 -4 5 -18z"
       id="path37"
       style="fill:#7f7f7f;fill-opacity:1" />
    <path
       d="M516 1927 c-26 -19 -17 -52 14 -52 18 0 26 6 28 21 4 30 -20 47 -42 31z"
       id="path38"
       style="fill:#7f7f7f;fill-opacity:1" />
    <path
       d="M2435 1849 c23 -74 40 -97 99 -134 14 -9 14 -15 4 -47 -17 -57 -62 -103 -130 -136 -35 -16 -92 -51 -127 -78 -123 -94 -203 -143 -302 -185 -61 -26 -99 -48 -99 -57 0 -22 43 -10 147 41 56 28 110 46 145 50 105 13 292 66 368 105 64 33 84 50 137 118 66 84 77 110 42 99 -34 -11 -174 -44 -176 -41 -1 1 9 24 22 51 14 26 25 56 25 65 0 9 17 24 40 34 42 19 75 56 85 99 9 34 -10 35 -72 7 -37 -16 -44 -25 -54 -64 -14 -57 -29 -60 -29 -6 0 35 -4 42 -39 64 -22 14 -51 28 -66 32 -25 6 -27 5 -20 -17z m102 -85 c-10 -10 -57 36 -57 55 0 11 10 6 32 -16 18 -18 29 -36 25 -39z m141 45 c-5 -16 -56 -44 -64 -36 -11 11 27 47 48 47 11 0 18 -5 16 -11z m-10 -240 c-5 -15 -45 -34 -113 -54 -74 -21 -275 -119 -253 -123 9 -2 42 8 74 22 33 13 93 39 134 56 41 18 86 36 100 41 24 10 24 10 5 -11 -36 -40 -140 -89 -263 -125 -68 -19 -136 -35 -150 -35 -24 0 -23 2 13 19 22 10 47 26 55 36 34 41 165 116 254 144 135 43 149 46 144 30z"
       id="path39"
       style="fill:#7f7f7f;fill-opacity:1" />
    <path
       d="M212 1848 c-16 -16 -15 -33 4 -48 22 -19 54 12 38 37 -14 22 -27 26 -42 11z"
       id="path40"
       style="fill:#7f7f7f;fill-opacity:1" />
    <path
       d="M310 1821 c0 -12 6 -21 16 -21 9 0 14 7 12 17 -5 25 -28 28 -28 4z"
       id="path41"
       style="fill:#7f7f7f;fill-opacity:1" />
    <path
       d="M2775 1830 c-9 -15 14 -40 31 -33 22 8 18 43 -5 43 -11 0 -23 -5 -26 -10z"
       id="path42"
       style="fill:#7f7f7f;fill-opacity:1" />
    <path
       d="M544 1816 c-11 -29 0 -51 26 -51 21 0 25 5 25 30 0 24 -5 31 -23 33 -13 2 -24 -3 -28 -12z"
       id="path43"
       style="fill:#7f7f7f;fill-opacity:1" />
    <path
       d="M2367 1710 c-18 -26 -11 -60 13 -60 24 0 42 24 38 52 -4 30 -32 35 -51 8z"
       id="path44"
       style="fill:#7f7f7f;fill-opacity:1" />
    <path
       d="M2724 1715 c-9 -23 15 -48 32 -34 19 15 18 35 -2 43 -22 8 -24 8 -30 -9z"
       id="path45"
       style="fill:#7f7f7f;fill-opacity:1" />
    <path
       d="M604 1695 c-8 -19 3 -35 26 -35 22 0 33 23 17 39 -15 15 -37 14 -43 -4z"
       id="path46"
       style="fill:#7f7f7f;fill-opacity:1" />
    <path
       d="M662 1613 c2 -10 12 -18 23 -18 11 0 21 8 23 18 3 13 -3 17 -23 17 -20 0 -26 -4 -23 -17z"
       id="path47"
       style="fill:#7f7f7f;fill-opacity:1" />
    <path
       d="M734 1536 c-8 -21 3 -36 27 -36 15 0 20 6 17 22 -4 27 -35 37 -44 14z"
       id="path48"
       style="fill:#7f7f7f;fill-opacity:1" />
    <path
       d="M193 1514 c-8 -21 13 -42 28 -27 13 13 5 43 -11 43 -6 0 -13 -7 -17 -16z"
       id="path49"
       style="fill:#7f7f7f;fill-opacity:1" />
    <path
       d="M822 1468 c-8 -8 -9 -15 -1 -25 15 -17 35 -17 43 2 7 20 -27 38 -42 23z"
       id="path50"
       style="fill:#7f7f7f;fill-opacity:1" />
    <path
       d="M914 1385 c-8 -19 3 -35 25 -35 27 0 33 12 14 32 -20 22 -32 23 -39 3z"
       id="path51"
       style="fill:#7f7f7f;fill-opacity:1" />
    <path
       d="M2521 1331 c-18 -42 -6 -71 28 -71 34 0 51 17 50 50 0 24 -1 24 -9 4 -17 -42 -63 -33 -47 9 3 8 2 19 -2 26 -6 8 -12 3 -20 -18z"
       id="path52"
       style="fill:#7f7f7f;fill-opacity:1" />
    <path
       d="M440 1331 c0 -21 26 -36 36 -20 6 11 -13 39 -27 39 -5 0 -9 -9 -9 -19z"
       id="path53"
       style="fill:#7f7f7f;fill-opacity:1" />
    <path
       d="M712 1323 c-10 -4 -10 -8 -1 -19 16 -19 41 -18 37 3 -3 18 -16 24 -36 16z"
       id="path54"
       style="fill:#7f7f7f;fill-opacity:1" />
    <path
       d="M589 1291 c-21 -16 -22 -22 -11 -45 8 -17 19 -26 36 -26 47 0 61 50 20 77 -19 12 -24 11 -45 -6z"
       id="path55"
       style="fill:#7f7f7f;fill-opacity:1" />
    <path
       d="M2324 1255 c-7 -18 3 -35 21 -35 15 0 24 19 18 38 -6 17 -32 15 -39 -3z"
       id="path56"
       style="fill:#7f7f7f;fill-opacity:1" />
    <path
       d="M772 1244 c-13 -23 -3 -52 20 -59 22 -8 48 11 48 34 0 38 -51 56 -68 25z"
       id="path57"
       style="fill:#7f7f7f;fill-opacity:1" />
    <path
       d="M150 1029 c0 -5 5 -11 10 -14 13 -8 13 -262 0 -270 -23 -14 -7 -25 40 -25 47 0 63 11 40 25 -5 3 -10 21 -10 39 l0 33 54 -1 c128 -1 182 124 84 197 -22 16 -44 20 -122 21 -53 1 -96 -1 -96 -5z m181 -59 c23 -13 26 -62 4 -80 -8 -7 -35 -15 -60 -18 l-45 -5 0 57 0 56 41 0 c22 0 49 -5 60 -10z"
       id="path58"
       style="fill:#7f7f7f;fill-opacity:1" />
    <path
       d="M549 973 c-17 -37 -45 -99 -61 -138 -17 -38 -36 -77 -44 -86 -22 -25 -17 -29 37 -29 44 0 50 2 40 14 -9 11 -10 20 -1 35 9 18 20 21 75 21 68 0 88 -13 78 -51 -5 -17 1 -19 41 -19 49 0 54 4 32 29 -7 9 -38 77 -69 151 -69 167 -81 174 -128 73z m76 -93 l14 -40 -44 0 -45 0 20 50 c11 28 20 54 20 58 1 12 20 -25 35 -68z"
       id="path59"
       style="fill:#7f7f7f;fill-opacity:1" />
    <path
       d="M836 1023 c11 -26 14 -272 3 -278 -22 -14 -6 -25 35 -25 45 0 45 0 41 33 -7 58 -14 167 -11 167 2 0 41 -45 86 -100 45 -55 90 -100 99 -100 14 0 16 18 16 142 0 79 3 150 8 158 6 12 -1 15 -38 16 -32 1 -43 -2 -35 -10 11 -11 14 -166 3 -166 -5 0 -42 41 -83 90 -62 75 -79 90 -103 90 -24 0 -28 -3 -21 -17z m70 -82 c-13 -20 -26 -11 -26 16 0 25 1 26 16 11 9 -9 13 -21 10 -27z m160 -139 c-4 -3 -11 -1 -18 6 -8 8 -8 15 3 28 13 16 14 16 17 -5 2 -13 1 -25 -2 -29z"
       id="path60"
       style="fill:#7f7f7f;fill-opacity:1" />
    <path
       d="M1190 999 l0 -36 50 5 50 5 0 -111 c0 -63 -4 -113 -10 -117 -24 -15 -6 -23 45 -22 48 1 53 3 41 17 -10 10 -15 49 -18 123 l-3 107 53 0 52 0 0 33 0 32 -130 0 -130 0 0 -36z"
       id="path61"
       style="fill:#7f7f7f;fill-opacity:1" />
    <path
       d="M1532 1010 c10 -31 7 -246 -5 -270 -6 -12 2 -15 44 -17 47 -1 49 0 35 16 -9 10 -16 32 -16 50 0 32 0 32 47 29 44 -3 48 -6 70 -47 21 -40 27 -44 58 -44 19 0 38 3 42 6 3 4 1 7 -5 7 -6 0 -25 20 -42 45 l-30 44 22 12 c36 19 47 41 48 91 0 36 -5 52 -22 68 -28 26 -39 28 -159 33 l-97 4 10 -27z m178 -43 c30 -15 37 -48 15 -71 -12 -11 -34 -16 -77 -16 -58 0 -60 1 -54 23 3 12 6 34 6 50 0 25 3 27 43 27 23 0 53 -6 67 -13z"
       id="path62"
       style="fill:#7f7f7f;fill-opacity:1" />
    <path
       d="M1850 1032 c0 -5 8 -16 17 -23 9 -8 38 -47 65 -88 41 -62 48 -81 48 -122 0 -26 -4 -51 -10 -54 -23 -14 -7 -26 33 -23 31 2 41 7 38 18 -2 8 -4 36 -6 61 -2 42 3 55 56 134 33 49 58 89 57 90 -2 1 -20 5 -40 8 -33 5 -38 3 -38 -14 0 -21 -48 -99 -61 -99 -13 0 -71 89 -64 100 4 6 -6 10 -22 10 -15 0 -38 3 -50 6 -13 4 -23 2 -23 -4z"
       id="path63"
       style="fill:#7f7f7f;fill-opacity:1" />
    <path
       d="M2693 1023 l-73 -4 0 -133 c0 -113 2 -135 16 -140 30 -11 33 -6 27 51 l-6 56 56 -7 c56 -6 57 -6 57 19 0 24 -3 25 -56 25 l-55 0 3 38 c3 33 6 37 28 35 14 -1 42 0 63 3 33 5 37 9 37 35 0 18 -5 28 -12 27 -7 -1 -46 -4 -85 -5z"
       id="path64"
       style="fill:#7f7f7f;fill-opacity:1" />
    <path
       d="M2365 977 c-61 -61 -52 -155 19 -198 41 -25 76 -24 117 4 66 44 76 142 19 199 -23 23 -37 28 -75 28 -40 0 -52 -5 -80 -33z m130 -47 c20 -39 19 -62 -6 -94 -41 -52 -113 -21 -113 49 0 45 28 75 70 75 27 0 36 -6 49 -30z"
       id="path65"
       style="fill:#7f7f7f;fill-opacity:1" />
    <path
       d="M478 582 c-201 -1 -318 -6 -318 -12 0 -6 175 -10 490 -10 392 0 490 3 490 13 0 14 -52 14 -662 9z"
       id="path66"
       style="fill:#7f7f7f;fill-opacity:1" />
    <path
       d="M1594 581 c-15 -15 10 -19 121 -19 95 1 125 4 125 14 0 10 -28 12 -121 11 -66 -1 -122 -4 -125 -6z"
       id="path67"
       style="fill:#7f7f7f;fill-opacity:1" />
    <path
       d="M1913 584 c-7 -3 -13 -9 -13 -12 0 -4 198 -8 440 -10 367 -3 440 -1 440 10 0 12 -73 14 -427 16 -236 1 -434 -1 -440 -4z"
       id="path68"
       style="fill:#7f7f7f;fill-opacity:1" />
    <path
       d="M2140 430 c0 -3 6 -13 13 -22 20 -26 22 -304 3 -333 -8 -13 -13 -24 -11 -26 2 -2 64 -3 138 -1 l135 3 4 50 c3 51 -1 59 -22 34 -9 -11 -33 -15 -89 -15 l-76 0 4 46 3 47 59 -6 59 -5 0 37 0 37 -65 -4 -65 -4 0 51 0 51 69 0 c49 0 72 -4 81 -15 20 -25 28 -18 32 30 l3 44 -137 3 c-76 2 -138 1 -138 -2z m86 -181 c3 -6 -1 -18 -10 -27 -15 -15 -16 -14 -16 11 0 27 13 36 26 16z"
       id="path69"
       style="fill:#7f7f7f;fill-opacity:1" />
    <path
       d="M150 415 c14 -17 14 -325 0 -339 -20 -20 -8 -26 52 -26 59 0 60 1 45 18 -10 11 -17 36 -17 60 l0 42 55 0 c124 0 195 93 145 189 -29 58 -64 71 -191 71 -88 0 -100 -2 -89 -15z m206 -70 c19 -25 18 -70 -2 -89 -10 -11 -34 -16 -70 -16 l-54 0 0 66 0 66 56 -4 c40 -3 61 -10 70 -23z m-137 -161 c-13 -15 -14 -15 -20 7 -8 33 0 44 19 25 13 -13 13 -17 1 -32z"
       id="path70"
       style="fill:#7f7f7f;fill-opacity:1" />
    <path
       d="M595 373 c-15 -32 -47 -110 -72 -173 -25 -63 -53 -123 -61 -132 -18 -22 -21 -21 51 -23 59 -2 68 3 42 25 -13 11 -13 15 1 41 14 28 17 29 88 29 l74 0 7 -31 c5 -23 3 -34 -12 -44 -16 -13 -14 -14 27 -15 25 0 55 -3 68 -6 16 -5 22 -2 22 9 0 8 -6 17 -13 20 -6 2 -18 22 -26 43 -7 22 -35 94 -62 161 -27 68 -49 130 -49 138 0 10 -10 15 -29 15 -26 0 -33 -7 -56 -57z m71 -108 l22 -65 -49 0 c-27 0 -49 5 -49 10 0 6 9 27 20 47 11 21 20 46 20 55 0 36 16 16 36 -47z"
       id="path71"
       style="fill:#7f7f7f;fill-opacity:1" />
    <path
       d="M890 421 c0 -5 6 -11 13 -14 16 -5 14 -330 -2 -335 -6 -2 -11 -10 -11 -17 0 -10 14 -13 50 -11 54 3 54 3 46 26 -8 22 -12 220 -4 220 3 0 46 -54 95 -119 65 -89 94 -120 111 -120 22 -1 22 -1 22 168 0 137 3 172 15 185 24 23 19 26 -47 26 -59 0 -61 -1 -44 -19 14 -15 16 -36 14 -116 l-3 -97 -78 101 c-43 56 -80 108 -84 116 -6 17 -93 22 -93 6z m110 -102 c0 -5 -4 -9 -9 -9 -5 0 -16 -3 -25 -6 -13 -5 -16 2 -16 37 l1 44 24 -28 c14 -15 25 -32 25 -38z m172 -159 c-6 -36 -11 -38 -32 -10 -14 18 -15 27 -7 32 23 15 42 4 39 -22z"
       id="path72"
       style="fill:#7f7f7f;fill-opacity:1" />
    <path
       d="M1400 407 c-125 -66 -117 -272 13 -338 53 -28 109 -28 169 -2 l46 21 4 81 3 81 -72 0 c-70 0 -73 -1 -73 -24 0 -24 16 -36 51 -36 17 0 20 -6 17 -32 -2 -26 -9 -33 -33 -40 -96 -25 -174 82 -132 183 28 67 119 87 180 39 28 -22 32 -20 41 25 6 28 3 31 -36 48 -60 24 -126 22 -178 -6z"
       id="path73"
       style="fill:#7f7f7f;fill-opacity:1" />
    <path
       d="M1832 372 c-57 -140 -102 -258 -102 -268 0 -6 -9 -19 -20 -29 -11 -10 -20 -21 -20 -25 0 -6 108 -6 129 -1 2 1 -3 9 -13 20 -13 14 -14 24 -7 44 9 23 15 26 83 29 55 3 76 0 86 -11 14 -18 16 -61 2 -61 -5 0 -10 -4 -10 -10 0 -6 29 -10 67 -10 63 0 65 1 50 18 -16 17 -75 147 -133 289 -27 68 -31 73 -59 73 -27 0 -32 -6 -53 -58z m93 -161 c-4 -3 -24 -7 -46 -8 -45 -3 -46 1 -23 67 9 25 18 52 21 60 3 8 16 -14 29 -49 13 -35 22 -67 19 -70z"
       id="path74"
       style="fill:#7f7f7f;fill-opacity:1" />
    <path
       d="M2611 347 c-19 -45 -49 -122 -68 -172 -19 -50 -41 -97 -49 -106 -13 -15 -9 -17 43 -21 69 -6 80 -2 58 22 -13 14 -14 22 -4 44 11 24 16 26 81 26 64 0 69 -2 80 -26 9 -20 9 -30 0 -45 -12 -18 -9 -19 48 -19 60 0 72 8 46 29 -8 7 -17 24 -21 39 -3 14 -32 91 -63 169 -55 141 -57 143 -87 143 -28 0 -32 -5 -64 -83z m103 -124 c7 -22 5 -23 -43 -23 -47 0 -65 10 -41 25 5 3 17 32 26 63 l17 57 17 -50 c9 -27 20 -60 24 -72z m55 -54 c3 -24 3 -24 -18 -5 -11 10 -18 23 -15 28 10 16 29 2 33 -23z"
       id="path75"
       style="fill:#7f7f7f;fill-opacity:1" />
    <path
       d="M2973 293 c-18 -7 -16 -43 2 -43 9 0 15 9 15 25 0 14 -1 25 -2 24 -2 0 -9 -3 -15 -6z"
       id="path76"
       style="fill:#7f7f7f;fill-opacity:1" />
  </g>
</svg>
